<svg width="186" height="38" viewBox="0 0 186 38" fill="none" xmlns="http://www.w3.org/2000/svg">
<path d="M67.0364 37.2349C66.8727 37.2349 66.7195 37.1548 66.626 37.0206L59.9673 27.4557C59.8665 27.311 59.6968 27.2302 59.5208 27.242C58.793 27.2909 58.2106 27.3154 57.7736 27.3154H50.2876C50.0115 27.3154 49.7876 27.5392 49.7876 27.8154V36.7349C49.7876 37.011 49.5638 37.2349 49.2876 37.2349H45.6714C45.3953 37.2349 45.1714 37.011 45.1714 36.7349V5.13553C45.1714 4.85939 45.3953 4.63553 45.6714 4.63553H57.7736C61.959 4.63553 65.2519 5.64455 67.6523 7.66261C70.0527 9.68067 71.2529 12.4594 71.2529 15.9987C71.2529 18.5135 70.6374 20.6558 69.4064 22.4255C68.2885 24.0327 66.739 25.2429 64.758 26.0563C64.4523 26.1818 64.3314 26.5585 64.521 26.8293L71.256 36.4481C71.488 36.7795 71.2509 37.2349 70.8464 37.2349H67.0364ZM57.6351 23.3569C60.5587 23.3569 62.7899 22.7204 64.3286 21.4475C65.8674 20.1746 66.6367 18.3583 66.6367 15.9987C66.6367 13.6392 65.8674 11.8384 64.3286 10.5966C62.7899 9.32363 60.5587 8.68716 57.6351 8.68716H50.2876C50.0115 8.68716 49.7876 8.91102 49.7876 9.18716V22.8569C49.7876 23.133 50.0115 23.3569 50.2876 23.3569H57.6351Z" fill="black"/>
<path d="M120.176 12.68C120.176 12.4038 120.4 12.18 120.676 12.18H126.877C127.153 12.18 127.377 12.4038 127.377 12.68V36.7349C127.377 37.011 127.153 37.2349 126.877 37.2349H123.777H120.176V31.105V12.68Z" fill="black"/>
<path d="M145.549 11.8074C148.627 11.8074 151.104 12.7388 152.981 14.6016C154.889 16.4644 155.843 19.2276 155.843 22.8912V36.7349C155.843 37.011 155.619 37.2349 155.343 37.2349H149.142C148.866 37.2349 148.642 37.011 148.642 36.7349V24.0089C148.642 22.0219 148.211 20.5471 147.349 19.5847C146.488 18.5912 145.241 18.0944 143.61 18.0944C141.795 18.0944 140.348 18.6688 139.271 19.8175C138.194 20.9352 137.655 22.6117 137.655 24.8471V36.7349C137.655 37.011 137.432 37.2349 137.155 37.2349H130.954C130.678 37.2349 130.454 37.011 130.454 36.7349V12.68C130.454 12.4038 130.678 12.18 130.954 12.18H136.832C137.108 12.18 137.332 12.4038 137.332 12.68V13.8149C137.332 14.2727 137.917 14.5083 138.27 14.2169C139.031 13.5887 139.903 13.0805 140.887 12.6922C142.302 12.1023 143.857 11.8074 145.549 11.8074Z" fill="black"/>
<path d="M169.776 27.8444C169.59 27.6117 169.244 27.592 169.033 27.802L166.113 30.7081C166.019 30.802 165.966 30.9295 165.966 31.0625V36.7349C165.966 37.011 165.742 37.2349 165.466 37.2349H159.264C158.988 37.2349 158.764 37.011 158.764 36.7349V3.17957C158.764 2.90342 158.988 2.67957 159.264 2.67957H165.466C165.742 2.67957 165.966 2.90342 165.966 3.17957V21.0697C165.966 21.5097 166.493 21.7351 166.811 21.4311L176.346 12.3185C176.439 12.2296 176.562 12.18 176.691 12.18H183.892C184.334 12.18 184.559 12.7119 184.25 13.0288L175.041 22.4855C174.866 22.6646 174.851 22.9449 175.005 23.1419L185.37 36.4273C185.626 36.7556 185.392 37.2349 184.976 37.2349H177.516C177.364 37.2349 177.22 37.1657 177.125 37.0469L169.776 27.8444Z" fill="black"/>
<path d="M103.285 34.9529C104.916 36.4742 107.209 37.2349 110.163 37.2349H120.176V31.105H111.287C110.302 31.105 109.532 30.8256 108.978 30.2668C108.455 29.6769 108.194 28.8541 108.194 27.7985V18.0996C108.194 17.8235 108.418 17.5996 108.694 17.5996H113.879C114.156 17.5996 114.379 17.3757 114.379 17.0996V12.5111C114.379 12.235 114.156 12.0111 113.879 12.0111H108.694C108.418 12.0111 108.194 11.7873 108.194 11.5111V6.4104C108.194 6.13425 107.97 5.9104 107.694 5.9104H101.492C101.216 5.9104 100.992 6.13425 100.992 6.4104V11.5111C100.992 11.7873 100.769 12.0111 100.492 12.0111H97.661C97.3848 12.0111 97.161 12.235 97.161 12.5111V17.0996C97.161 17.3757 97.3848 17.5996 97.661 17.5996H100.487C100.765 17.5996 100.99 17.8266 100.987 18.1047L100.884 28.2468C100.884 31.1962 101.684 33.4316 103.285 34.9529Z" fill="black"/>
<path fill-rule="evenodd" clip-rule="evenodd" d="M96.2236 25.0334C96.2236 25.2789 96.2077 25.5805 96.176 25.9382C96.1534 26.1922 95.9383 26.384 95.6834 26.384H76.8495C76.5482 26.384 76.3142 26.6488 76.3696 26.9449C76.728 28.8611 77.6373 30.4282 79.0976 31.6464C80.7286 32.9504 82.7444 33.6024 85.1448 33.6024H95.7236C95.9998 33.6024 96.2236 33.8262 96.2236 34.1024V37.0143C96.2236 37.2905 95.9998 37.5143 95.7236 37.5143H85.0063C82.4212 37.5143 80.1285 36.9865 78.1282 35.9309C76.1278 34.8443 74.5737 33.3385 73.4658 31.4136C72.3887 29.4887 71.8501 27.3154 71.8501 24.8937C71.8501 22.5031 72.3733 20.3453 73.4196 18.4204C74.4968 16.4955 75.9586 15.0052 77.805 13.9496C79.6823 12.863 81.7903 12.3197 84.1292 12.3197C86.4681 12.3197 88.5454 12.863 90.3611 13.9496C92.2076 15.0052 93.6386 16.4955 94.6541 18.4204C95.7005 20.3453 96.2236 22.5497 96.2236 25.0334ZM78.7744 18.0478C80.2208 16.7439 82.0058 16.0919 84.1292 16.0919C86.2527 16.0919 88.0222 16.7594 89.4378 18.0944C90.753 19.2801 91.572 20.7866 91.8949 22.6139C91.947 22.9088 91.7135 23.1706 91.4141 23.1706H76.8434C76.5443 23.1706 76.311 22.9093 76.3616 22.6146C76.681 20.7576 77.4852 19.2353 78.7744 18.0478Z" fill="black"/>
<path fill-rule="evenodd" clip-rule="evenodd" d="M21.7176 22.8389C23.7892 22.6271 26.7136 21.867 29.1522 20.2464C31.708 18.5478 33.6986 15.9352 33.6986 11.9781C33.6986 7.8982 32.2832 5.45349 30.6079 4.01595C28.9018 2.5519 26.8468 2.06506 25.5072 2.06506H2.87267C2.14061 2.06506 1.77617 2.95964 2.29681 3.47865L21.7176 22.8389Z" fill="#EA0022"/>
<path d="M29.1522 20.2464C26.7136 21.867 23.7892 22.6271 21.7176 22.8389L2.29681 3.47865C1.77617 2.95964 2.14061 2.06506 2.87267 2.06506H25.5072C26.8468 2.06506 28.9018 2.5519 30.6079 4.01595C32.2832 5.45349 33.6986 7.8982 33.6986 11.9781C33.6986 15.9352 31.708 18.5478 29.1522 20.2464Z" fill="#EA0022"/>
<path d="M29.1532 21.0727C26.7146 22.6933 23.7902 23.4534 21.7187 23.6652L2.66504 3.83752L18.2277 16.3408C21.7187 19.118 25.2401 18.8713 28.5587 17.2964C30.3082 16.4661 32.3321 14.9094 33.8758 10.7234C34.0679 12.104 34.7811 17.2226 29.1532 21.0727Z" fill="#9B0003"/>
<path fill-rule="evenodd" clip-rule="evenodd" d="M18.137 35.9346L4.77504 23.0862C4.25365 22.5848 3.39062 22.9575 3.39062 23.6841V35.1085C3.39062 35.5647 3.75737 35.9346 4.20977 35.9346H18.137Z" fill="#BDBDBD"/>
<path d="M4.77504 23.0862L18.137 35.9346H4.20977C3.75737 35.9346 3.39062 35.5647 3.39062 35.1085V23.6841C3.39062 22.9575 4.25365 22.5848 4.77504 23.0862Z" fill="#BDBDBD"/>
<path opacity="0.58" d="M4.58975 32.0862L4.58981 29.8341C4.63844 31.7803 5.0074 33.0944 6.03324 33.6682C7.88276 34.6629 7.18405 34.7873 5.1495 34.6629C4.53417 34.6253 4.61493 33.0938 4.58975 32.0862Z" fill="white"/>
<path d="M11.3055 29.3956C15.5904 35.0564 10.6985 36.4716 7.71692 36.4716H18.804L11.3055 29.3956Z" fill="#797979"/>
<path opacity="0.58" d="M25.7016 3.03516H19.6788C23.3672 3.03516 26.6659 3.72148 27.8019 5.66987C28.9469 8.23937 31.6747 8.08761 30.5682 5.97984C29.4617 3.87207 27.6112 3.03516 25.7016 3.03516Z" fill="white"/>
<path fill-rule="evenodd" clip-rule="evenodd" d="M1.14493 4.65372C-0.416964 3.0967 0.676319 0.412964 2.87252 0.412964H25.507C27.1709 0.412964 29.6212 1.00005 31.6695 2.75773C33.7487 4.54192 35.3368 7.46678 35.3368 11.9782C35.3368 16.6124 32.9586 19.6954 30.0535 21.626C27.8304 23.1034 25.281 23.9239 23.182 24.2989L32.2575 33.3461C33.8194 34.9031 32.7261 37.5869 30.5299 37.5869H4.20923C2.85202 37.5869 1.75179 36.4773 1.75179 35.1086V23.6842C1.75179 21.5046 4.34087 20.3865 5.90504 21.8906L20.5105 35.9347H30.5299C31.2619 35.9347 31.6264 35.0401 31.1057 34.5211L1.14493 4.65372ZM29.152 20.2465C26.7134 21.8671 23.7891 22.6272 21.7175 22.839L2.29666 3.47873C1.77602 2.95971 2.14046 2.06514 2.87252 2.06514H25.507C26.8467 2.06514 28.9017 2.55197 30.6078 4.01602C32.283 5.45357 33.6985 7.89827 33.6985 11.9782C33.6985 15.9352 31.7079 18.5479 29.152 20.2465ZM18.1364 35.9347L4.7745 23.0863C4.25311 22.5849 3.39008 22.9577 3.39008 23.6842V35.1086C3.39008 35.5649 3.75682 35.9347 4.20923 35.9347H18.1364Z" fill="black"/>
<path fill-rule="evenodd" clip-rule="evenodd" d="M0.857235 4.94755C-0.964973 3.13103 0.310521 0 2.87276 0H25.5073C27.2522 0 29.8013 0.612144 31.9352 2.44324C34.1153 4.31409 35.7466 7.35899 35.7466 11.9783C35.7466 16.7818 33.2715 19.9823 30.2791 21.971C28.2666 23.3085 25.9995 24.1184 24.0197 24.5531L32.5457 33.0524C34.3679 34.869 33.0924 38 30.5301 38H4.20946C2.62606 38 1.34245 36.7055 1.34245 35.1087V23.6843C1.34245 21.1414 4.36305 19.837 6.18792 21.5917L20.6747 35.5217H30.5301C30.8962 35.5217 31.0784 35.0745 30.8181 34.8149L0.857235 4.94755ZM17.1136 35.5217L4.4921 23.3853C4.23141 23.1346 3.79989 23.321 3.79989 23.6843V35.1087C3.79989 35.3368 3.98326 35.5217 4.20946 35.5217H17.1136ZM21.8672 22.4073C23.8749 22.1745 26.6292 21.4287 28.9269 19.9017C31.3955 18.2611 33.2891 15.766 33.2891 11.9783C33.2891 8.00623 31.9169 5.68156 30.3426 4.33068C28.722 2.94003 26.7659 2.47826 25.5073 2.47826H2.87276C2.50674 2.47826 2.32451 2.92555 2.58483 3.18506L21.8672 22.4073Z" fill="black"/>
</svg>
